<svg version="1" xmlns="http://www.w3.org/2000/svg" width="437.333" height="437.333" viewBox="0 0 328.000000 328.000000"><path d="M197.1 12.1c-25.3 8-45.1 24.3-57.4 47.5-4.8 9-6.3 13.2-8.8 23.9-2.8 12.1-3 13.9-2.4 25.5 1 18.3 5.4 32.6 14.7 47.5 4.2 6.7 8.9 12.8 12.1 15.6 2.9 2.6 5 4.9 4.7 5.2-.3.3-5.8 1.9-12.2 3.6-16.4 4.4-30.6 9.6-49.9 18.4-9.1 4.2-20.2 8.5-24.5 9.6-22.8 5.7-40.4 2.8-58.9-9.8-4.2-2.9-8-4.9-8.5-4.6-1.6 1-1.2 18.4.5 24.9 5 19.3 20.3 36.1 40.2 44.1 5.3 2.2 6.1 2.9 8.8 8.2 4.4 8.5 8.6 14 15.7 20.9 12.2 11.8 21.6 16.8 34.7 18.5 21.7 2.8 52.8-4.3 78.6-17.9l7-3.7.3-4.7c.3-5.2.5-5.3 7.2-4.9 5.2.3 10.1 2 13.9 4.9 2.3 1.7 3.6 2.2 3.9 1.4.5-1.6 5.6-4.2 8.2-4.2 1.2 0 3.4.7 5 1.5 2.7 1.4 3.1 1.4 4.9-.4 1.3-1.3 5.2-2.5 12-3.7l10.1-1.9V260l-32.2-.2c-25-.2-32.3-.6-32.4-1.6-.1-.6-.2-14.5-.3-30.7-.1-33.8.6-31.8-9.6-26.9-11.9 5.6-13 10.9-5.9 27.9 2.5 6.1 4.8 11.7 5 12.5.6 1.9-5 7.4-6.8 6.7-1.8-.6-12.1-19.5-15.3-28-4.3-11.5-3.1-18.3 4.8-26.1 2.9-2.8 7.5-6.3 10.4-7.9 5.9-3.2 24.2-7.9 39.1-10.1 9.6-1.4 11.2-1.3 22.6.4 15.6 2.4 27.5 5.5 34.8 8.9l5.7 2.7 5.9-3.7c3.2-2 9.7-7.9 14.5-13.1 17.2-18.8 25.7-41 25.7-67.3 0-10.2-.4-13.8-2.5-21C316 67 314.6 63.7 308 53.1c-13.3-21.2-35.2-37-59.4-42.5-9.6-2.2-13.8-2.6-25.3-2.5-13.1.1-14.4.3-26.2 4zm4.7 122.2c.2 30-.1 36.2-1.9 35.1-1-.6-1.3-63.7-.2-64.7.3-.4.9-.7 1.2-.7.3 0 .7 13.6.9 30.3zm48.2 2.8c0 21.1-.3 32.8-1 32.4-1.2-.7-1-65.5.2-65.5.4 0 .8 14.9.8 33.1zm-31.2-13.5c3 2.1 2.9 5.9-.3 8-2.3 1.5-2.7 1.5-5 0-3.2-2.1-3.3-5.9-.3-8 1.2-.9 2.5-1.6 2.8-1.6.3 0 1.6.7 2.8 1.6zm19.3 1.6c2.1 3.9-1.8 8.2-6.4 7-2.2-.6-3.9-4.5-3-6.8 1.3-3.5 7.5-3.7 9.4-.2zm-6 23.5c1.6 1 2.9 2.1 2.9 2.6s-1 .3-2.3-.6c-4.2-2.7-8.3-3-13.2-.8-4.9 2.1-6.3 1.1-1.7-1.3 3.7-2 10.8-2 14.3.1zm-51.5 104.5c3.7 5.7 5.3 6.9 8.1 6.2 1.4-.4 2.3-.2 2.3.5 0 1.7-6.1 1.3-8.2-.6-1-.9-1.8-2.1-1.8-2.6 0-.6-1.1-2.5-2.6-4.4-1.4-1.8-2.1-3.3-1.6-3.3s2.2 1.9 3.8 4.2z"/><path d="M213.4 125.5c-.6 1.6.2 3.5 1.6 3.5.5 0 .7-.7.4-1.5-.5-1.2-.2-1.4 1.2-.8 1.7.6 1.7.5.5-1-1.7-2.1-3-2.2-3.7-.2zM231.3 125.1c-1.4 1.4-.6 3.9 1.4 3.9.8 0 1.2-.4.9-.9-.4-.5-.1-1.1.6-1.3.6-.2.8-1 .4-1.6-.9-1.5-1.9-1.5-3.3-.1zM215.5 182.9c-21 9.7-13.7 41.6 9.5 41.5 17.7-.2 27.7-19.3 17.7-34.1-5.9-8.7-17.6-11.9-27.2-7.4zm18.4 2.1c9.3 4.7 13.4 15.5 9.5 24.8-4.7 11.4-19.1 16.3-28.6 9.8-5.6-3.8-9-9-9.6-14.6-.8-8.7 3.4-16.3 11.3-20.4 4.2-2.2 12.7-2 17.4.4z"/><path d="M222 193.3c-2.4.8-3.6 1.9-3.8 3.4-.3 2.3 1.2 3.1 2.3 1.3.7-1.2 4.5-1.4 4.5-.3-.1.5-.7 1.9-1.5 3.3-2.3 4-1.9 5.1 1.2 3.9 1.8-.6 3-.6 3.7.1.6.6-.6 2.4-3.9 5.5-5.9 5.4-5.1 6 1.2.9 7-5.7 9.5-12.6 3.8-10.4-2.9 1.1-3.2-.1-1-4 2.9-5.1.9-6.2-6.5-3.7zM257 205.7c0 4.4.4 7.3.9 6.7 1.4-1.5 3.1-7.5 3.1-11 0-2.7-.4-3.4-2-3.4-1.8 0-2 .7-2 7.7zM261.3 245.1l-4.3 2.1v5.9c0 5.4.2 5.9 2.4 6.5 2.7.6 6.6-1 6.6-2.9 0-.7 1.4-3 3.2-5.1l3.2-3.9-2.8-2.3c-3.3-2.9-3.1-2.9-8.3-.3z"/></svg>